$MeshFormat
2.2 0 8
$EndMeshFormat
$PhysicalNames
5
1 1 "inlet"
1 2 "outlet"
1 3 "wall_bottom"
1 4 "wall_top"
2 5 "fluid"
$EndPhysicalNames
$Nodes
45
1 0.000000 0.000000 0.0
2 0.125000 0.000000 0.0
3 0.250000 0.000000 0.0
4 0.375000 0.000000 0.0
5 0.500000 0.000000 0.0
6 0.625000 0.000000 0.0
7 0.750000 0.000000 0.0
8 0.875000 0.000000 0.0
9 1.000000 0.000000 0.0
10 0.000000 0.125000 0.0
11 0.125000 0.125000 0.0
12 0.250000 0.125000 0.0
13 0.375000 0.125000 0.0
14 0.500000 0.125000 0.0
15 0.625000 0.125000 0.0
16 0.750000 0.125000 0.0
17 0.875000 0.125000 0.0
18 1.000000 0.125000 0.0
19 0.000000 0.250000 0.0
20 0.125000 0.250000 0.0
21 0.250000 0.250000 0.0
22 0.375000 0.250000 0.0
23 0.500000 0.250000 0.0
24 0.625000 0.250000 0.0
25 0.750000 0.250000 0.0
26 0.875000 0.250000 0.0
27 1.000000 0.250000 0.0
28 0.000000 0.375000 0.0
29 0.125000 0.375000 0.0
30 0.250000 0.375000 0.0
31 0.375000 0.375000 0.0
32 0.500000 0.375000 0.0
33 0.625000 0.375000 0.0
34 0.750000 0.375000 0.0
35 0.875000 0.375000 0.0
36 1.000000 0.375000 0.0
37 0.000000 0.500000 0.0
38 0.125000 0.500000 0.0
39 0.250000 0.500000 0.0
40 0.375000 0.500000 0.0
41 0.500000 0.500000 0.0
42 0.625000 0.500000 0.0
43 0.750000 0.500000 0.0
44 0.875000 0.500000 0.0
45 1.000000 0.500000 0.0
$EndNodes
$Elements
56
1 1 2 1 5 1 10
2 1 2 1 5 10 19
3 1 2 1 5 19 28
4 1 2 1 5 28 37
5 1 2 2 6 9 18
6 1 2 2 6 18 27
7 1 2 2 6 27 36
8 1 2 2 6 36 45
9 1 2 3 7 1 2
10 1 2 3 7 2 3
11 1 2 3 7 3 4
12 1 2 3 7 4 5
13 1 2 3 7 5 6
14 1 2 3 7 6 7
15 1 2 3 7 7 8
16 1 2 3 7 8 9
17 1 2 4 8 37 38
18 1 2 4 8 38 39
19 1 2 4 8 39 40
20 1 2 4 8 40 41
21 1 2 4 8 41 42
22 1 2 4 8 42 43
23 1 2 4 8 43 44
24 1 2 4 8 44 45
25 3 2 5 1 1 2 11 10
26 3 2 5 1 2 3 12 11
27 3 2 5 1 3 4 13 12
28 3 2 5 1 4 5 14 13
29 3 2 5 1 5 6 15 14
30 3 2 5 1 6 7 16 15
31 3 2 5 1 7 8 17 16
32 3 2 5 1 8 9 18 17
33 3 2 5 1 10 11 20 19
34 3 2 5 1 11 12 21 20
35 3 2 5 1 12 13 22 21
36 3 2 5 1 13 14 23 22
37 3 2 5 1 14 15 24 23
38 3 2 5 1 15 16 25 24
39 3 2 5 1 16 17 26 25
40 3 2 5 1 17 18 27 26
41 3 2 5 1 19 20 29 28
42 3 2 5 1 20 21 30 29
43 3 2 5 1 21 22 31 30
44 3 2 5 1 22 23 32 31
45 3 2 5 1 23 24 33 32
46 3 2 5 1 24 25 34 33
47 3 2 5 1 25 26 35 34
48 3 2 5 1 26 27 36 35
49 3 2 5 1 28 29 38 37
50 3 2 5 1 29 30 39 38
51 3 2 5 1 30 31 40 39
52 3 2 5 1 31 32 41 40
53 3 2 5 1 32 33 42 41
54 3 2 5 1 33 34 43 42
55 3 2 5 1 34 35 44 43
56 3 2 5 1 35 36 45 44
$EndElements
